<?xml version="1.0" encoding="utf-8"?>
<!-- Generator: Adobe Illustrator 16.0.3, SVG Export Plug-In . SVG Version: 6.00 Build 0)  -->
<!DOCTYPE svg PUBLIC "-//W3C//DTD SVG 1.1//EN" "http://www.w3.org/Graphics/SVG/1.1/DTD/svg11.dtd">
<svg version="1.1" id="Layer_1" xmlns="http://www.w3.org/2000/svg" xmlns:xlink="http://www.w3.org/1999/xlink" x="0px" y="0px"
	 width="2048px" height="1536px" viewBox="0 0 2048 1536" enable-background="new 0 0 2048 1536" xml:space="preserve">
<polygon fill="#939598" points="2048,0 2048,1536 755,929.5 755,0 "/>
<polygon fill="#A06740" points="752.5,929.5 0,929.5 0,1536 2048,1536 2048,1385.854 "/>
<rect fill="#A7A9AC" width="755" height="929.5"/>
<line fill="none" stroke="#603913" stroke-width="4" stroke-miterlimit="10" x1="853.863" y1="965.83" x2="0" y2="965.83"/>
<line fill="none" stroke="#603913" stroke-width="4" stroke-miterlimit="10" x1="787.799" y1="942.082" x2="0" y2="942.082"/>
<line fill="none" stroke="#603913" stroke-width="4" stroke-miterlimit="10" x1="942.95" y1="996.079" x2="0" y2="996.079"/>
<line fill="none" stroke="#603913" stroke-width="4" stroke-miterlimit="10" x1="1113.116" y1="1056.076" x2="0" y2="1056.076"/>
<line fill="none" stroke="#603913" stroke-width="4" stroke-miterlimit="10" x1="1316.074" y1="1128.072" x2="0" y2="1128.072"/>
<line fill="none" stroke="#603913" stroke-width="4" stroke-miterlimit="10" x1="1564.563" y1="1215.068" x2="0" y2="1215.068"/>
<line fill="none" stroke="#603913" stroke-width="4" stroke-miterlimit="10" x1="1848.046" y1="1314.063" x2="0" y2="1314.063"/>
<line fill="none" stroke="#603913" stroke-width="4" stroke-miterlimit="10" x1="2048" y1="1434.058" x2="0" y2="1434.058"/>
<line fill="none" stroke="#603913" stroke-width="4" stroke-miterlimit="10" x1="1022.859" y1="1026.193" x2="0" y2="1026.193"/>
<line fill="none" stroke="#603913" stroke-width="4" stroke-miterlimit="10" x1="1200.863" y1="1090.561" x2="0" y2="1090.561"/>
<line fill="none" stroke="#603913" stroke-width="4" stroke-miterlimit="10" x1="1436.756" y1="1170.247" x2="0" y2="1170.247"/>
<line fill="none" stroke="#603913" stroke-width="4" stroke-miterlimit="10" x1="1680.655" y1="1261.944" x2="0" y2="1261.944"/>
<line fill="none" stroke="#603913" stroke-width="4" stroke-miterlimit="10" x1="2004.958" y1="1372.27" x2="0" y2="1372.27"/>
<line fill="none" stroke="#603913" stroke-width="4" stroke-miterlimit="10" x1="2048" y1="1497" x2="0" y2="1497"/>
<path fill="#A97C50" d="M-199.91,599.657"/>
<g>
	<rect x="342.5" y="732.55" fill="#825534" width="35" height="309.45"/>
	<polygon fill="#603E23" points="342.695,1042 323.711,1018.978 323.711,732.55 342.695,732.55 	"/>
</g>
<g>
	<rect x="832.222" y="732.55" fill="#825534" width="35" height="309.45"/>
	<polygon fill="#603E23" points="832.417,1042 813.433,1030.989 813.433,732.55 832.417,732.55 	"/>
</g>
<g>
	<rect x="90.015" y="665.51" fill="#825534" width="35" height="291.839"/>
	<polygon fill="#603E23" points="90.21,957.35 71.226,935.638 71.226,665.51 90.21,665.51 	"/>
</g>
<g>
	<rect x="625.444" y="665.51" fill="#825534" width="35" height="291.839"/>
	<polygon fill="#603E23" points="625.64,957.35 606.655,944.646 606.655,665.51 625.64,665.51 	"/>
</g>
<rect x="319.189" y="712.562" fill="#8B5E3C" width="575" height="40"/>
<polygon fill="#A97C50" points="30.029,648.287 623.003,649.288 894.189,712.562 319.189,712.562 "/>
<polygon fill="#754C29" points="32.05,647.9 32.05,677.421 319.189,752.562 319.189,712.562 "/>
<polygon fill="#939598" points="645.176,691.147 455.96,691.147 357.061,661.506 357.57,656.729 524.17,665.51 644.742,685.601 "/>
<polygon fill="#A7A9AC" points="645.176,685.336 455.96,685.336 357.061,656.696 524.17,656.696 "/>
<path fill="#939598" d="M533.536,650.859c0,3.816-2.686,6.91-6,6.91H363.061c-3.313,0-6-3.094-6-6.91V523.91
	c0-3.816,2.687-6.91,6-6.91h164.475c3.314,0,6,3.094,6,6.91V650.859z"/>
<path fill="#BCBEC0" d="M524.873,644.627c0,3.441-2.422,6.232-5.411,6.232H371.134c-2.988,0-5.411-2.791-5.411-6.232V530.142
	c0-3.442,2.423-6.232,5.411-6.232h148.328c2.989,0,5.411,2.79,5.411,6.232V644.627z"/>
<linearGradient id="SVGID_1_" gradientUnits="userSpaceOnUse" x1="703.2852" y1="651.5674" x2="742.894" y2="651.5674">
	<stop  offset="0.197" style="stop-color:#000000"/>
	<stop  offset="0.5616" style="stop-color:#58595B"/>
	<stop  offset="1" style="stop-color:#000000"/>
</linearGradient>
<path fill="none" stroke="url(#SVGID_1_)" stroke-width="5.671" stroke-miterlimit="10" d="M740.059,669.691
	c0,2.175-2.687,3.938-6,3.938h-21.938c-3.313,0-6-1.763-6-3.938v-36.249c0-2.175,2.687-3.938,6-3.938h21.938
	c3.313,0,6,1.763,6,3.938V669.691z"/>
<linearGradient id="SVGID_2_" gradientUnits="userSpaceOnUse" x1="659.3042" y1="648.0205" x2="719.1333" y2="648.0205">
	<stop  offset="0.197" style="stop-color:#000000"/>
	<stop  offset="0.5616" style="stop-color:#58595B"/>
	<stop  offset="1" style="stop-color:#000000"/>
</linearGradient>
<path fill="url(#SVGID_2_)" d="M719.133,678.636c0,3.314-2.687,6-6,6h-47.829c-3.313,0-6-2.686-6-6v-61.231c0-3.313,2.687-6,6-6
	h47.829c3.313,0,6,2.687,6,6V678.636z"/>
<polygon fill="#BCBEC0" points="434.018,700.231 328,700.231 205.984,665.51 320.01,665.51 "/>
<polygon fill="#D1D3D4" points="434.018,698.306 328,698.306 206.985,663.585 320.01,663.585 "/>
<polygon fill="#F1F2F2" points="434.018,696.304 328,696.304 209.988,661.583 320.01,661.583 "/>
<rect x="317.554" y="644.159" transform="matrix(0.2391 -0.971 0.971 0.2391 -415.1913 826.538)" fill="#6D6E71" width="4.5" height="68.073"/>
<g id="XMLID_1_">
	<g>
		<polygon fill="#726658" points="2045.622,66.92 2045.622,1199.86 1520,1199.86 1520,156 		"/>
		<polygon fill="#9B8579" points="2045.622,1199.86 2045.622,1394.5 1520,1199.86 		"/>
	</g>
	<g>
		<polyline fill="none" stroke="#000000" stroke-width="0.4888" stroke-linecap="round" stroke-linejoin="round" points="
			2045.622,1394.5 1520,1199.86 2045.622,1199.86 2059.04,1199.86 		"/>
	</g>
</g>
<line fill="none" stroke="#603913" stroke-width="13" stroke-linejoin="round" stroke-miterlimit="10" x1="1525.005" y1="1199.86" x2="2048" y2="1392.498"/>
<line fill="none" stroke="#603913" stroke-width="45.564" stroke-linejoin="round" stroke-miterlimit="10" x1="2045.622" y1="1177.839" x2="1523.003" y2="1177.839"/>
<rect x="1564.563" y="599.657" fill="#9B8579" width="50.438" height="96.646"/>
<rect x="1585.777" y="625.887" fill="#726658" width="10.219" height="41.745"/>
<polygon fill="#A7A9AC" points="1475.005,701.586 1424.567,699.193 1424.567,601.408 1475.005,595.426 "/>
<rect x="1444.781" y="626.379" fill="#939598" width="10.219" height="38.369"/>
<g>
	<polygon fill="#A97C50" points="934.95,338.437 1295.5,295.491 1295.5,472.476 934.95,485.045 	"/>
	<path fill="#8B5E3C" d="M1287.5,304.5v160.25l-344.55,12.012V345.54L1287.5,304.5 M1303.5,286.481l-17.893,2.131l-344.55,41.04
		l-14.107,1.68v14.208v131.222v16.567l16.558-0.577l344.55-12.012l15.442-0.538V464.75V304.5V286.481L1303.5,286.481z"/>
</g>
<rect x="985" y="437" fill="#FBB040" width="50" height="50"/>
<rect x="1035" y="390.631" transform="matrix(0.9903 0.1391 -0.1391 0.9903 68.1421 -143.446)" fill="#FBB040" width="50" height="50"/>
<rect x="917.95" y="365.631" transform="matrix(0.9191 0.394 -0.394 0.9191 230.1567 -339.8984)" fill="#FBB040" width="50" height="50"/>
<rect x="1090.225" y="462" transform="matrix(0.9997 -0.0261 0.0261 0.9997 -12.3147 29.2335)" fill="#FBB040" width="49.999" height="50"/>
<rect x="1208.158" y="324.162" transform="matrix(0.9997 -0.0261 0.0261 0.9997 -8.6819 32.2606)" fill="#FBB040" width="49.999" height="50"/>
<rect x="1115.225" y="352" transform="matrix(0.9888 -0.1493 0.1493 0.9888 -43.5039 174.4464)" fill="#FBB040" width="50" height="50"/>
<rect x="1179.238" y="394.634" transform="matrix(0.9852 -0.1716 0.1716 0.9852 -54.1504 212.896)" fill="#FBB040" width="50.001" height="50"/>
<rect x="1208.158" y="451.762" transform="matrix(0.9778 0.2095 -0.2095 0.9778 127.231 -247.7422)" fill="#FBB040" width="50.001" height="49.999"/>
</svg>
